<svg xmlns="http://www.w3.org/2000/svg" width="1900" height="1000" viewBox="0 0 1900 1000" font-family="Loma, 'Noto Sans Thai', sans-serif"><rect width="100%" height="100%" fill="#fff"/><text x="120" y="52" font-size="32" font-weight="700" fill="#111">ผังลานสระด้านหลัง — สระสำเร็จรูป 3 × 6 ม. ขอบสูง +0.80</text><text x="120" y="82" font-size="16" fill="#555">MY PLACE REV D.12 · ทิศเหนืออยู่ด้านบน · หน่วย เมตร · อยู่บนแกนประตูกระจกเลื่อนของคลินิก (x = 16.40)</text><rect x="35.0" y="120.0" width="1120.0" height="644.0" fill="#e9f1df" stroke="none" stroke-width="1"  />
<line x1="35.0" y1="216.6" x2="1148.0" y2="49.6" stroke="#333" stroke-width="3" />
<text paint-order="stroke" stroke="#fff" stroke-width="3.5" stroke-linejoin="round" x="1071.0" y="57.0" font-size="11" fill="#333" text-anchor="end"  >รั้วหลังเฉียง</text>
<rect x="35.0" y="589.0" width="924.0" height="175.0" fill="#f7f7f4" stroke="#444" stroke-width="2"  />
<rect x="35.0" y="587.6" width="924.0" height="8.4" fill="#7fb5d6" stroke="#7fb5d6" stroke-width="1"  />
<rect x="119.0" y="589.0" width="574.0" height="175.0" fill="#eef3f7" stroke="#444" stroke-width="1.5"  />
<text paint-order="stroke" stroke="#fff" stroke-width="3.5" stroke-linejoin="round" x="406.0" y="680.0" font-size="13" fill="#111" text-anchor="middle" font-weight="700" >คลินิกกายภาพบำบัด (GF) — ห้องฟื้นฟูหันหน้าสู่สระ</text>
<rect x="483.0" y="578.5" width="140.0" height="21.0" fill="#cfe6f2" stroke="#0b57d0" stroke-width="1.5"  />
<text paint-order="stroke" stroke="#fff" stroke-width="3.5" stroke-linejoin="round" x="553.0" y="624.0" font-size="11" fill="#0b57d0" text-anchor="middle"  >ประตูกระจกเลื่อน 2.00 ม.</text>
<rect x="693.0" y="589.0" width="266.0" height="175.0" fill="#f1ece3" stroke="#444" stroke-width="1"  />
<text paint-order="stroke" stroke="#fff" stroke-width="3.5" stroke-linejoin="round" x="826.0" y="680.0" font-size="12" fill="#111" text-anchor="middle"  >ห้องปีนผา</text>
<rect x="35.0" y="589.0" width="84.0" height="175.0" fill="#f1f1ee" stroke="#444" stroke-width="1"  />
<text paint-order="stroke" stroke="#fff" stroke-width="3.5" stroke-linejoin="round" x="98.0" y="680.0" font-size="12" fill="#111" text-anchor="start"  >ห้องแต่งตัว</text>
<rect x="203.0" y="484.0" width="700.0" height="105.0" fill="#e2b886" stroke="#9b6b33" stroke-width="1"  />
<rect x="203.0" y="204.0" width="700.0" height="70.0" fill="#e2b886" stroke="#9b6b33" stroke-width="1"  />
<rect x="203.0" y="274.0" width="140.0" height="210.0" fill="#e2b886" stroke="#9b6b33" stroke-width="1"  />
<rect x="763.0" y="274.0" width="140.0" height="210.0" fill="#e2b886" stroke="#9b6b33" stroke-width="1"  />
<line x1="203.0" y1="589.0" x2="203.0" y2="484.0" stroke="#caa06a" stroke-width="0.5" />
<line x1="210.0" y1="589.0" x2="210.0" y2="484.0" stroke="#caa06a" stroke-width="0.5" />
<line x1="217.0" y1="589.0" x2="217.0" y2="484.0" stroke="#caa06a" stroke-width="0.5" />
<line x1="224.0" y1="589.0" x2="224.0" y2="484.0" stroke="#caa06a" stroke-width="0.5" />
<line x1="231.0" y1="589.0" x2="231.0" y2="484.0" stroke="#caa06a" stroke-width="0.5" />
<line x1="238.0" y1="589.0" x2="238.0" y2="484.0" stroke="#caa06a" stroke-width="0.5" />
<line x1="245.0" y1="589.0" x2="245.0" y2="484.0" stroke="#caa06a" stroke-width="0.5" />
<line x1="252.0" y1="589.0" x2="252.0" y2="484.0" stroke="#caa06a" stroke-width="0.5" />
<line x1="259.0" y1="589.0" x2="259.0" y2="484.0" stroke="#caa06a" stroke-width="0.5" />
<line x1="266.0" y1="589.0" x2="266.0" y2="484.0" stroke="#caa06a" stroke-width="0.5" />
<line x1="273.0" y1="589.0" x2="273.0" y2="484.0" stroke="#caa06a" stroke-width="0.5" />
<line x1="280.0" y1="589.0" x2="280.0" y2="484.0" stroke="#caa06a" stroke-width="0.5" />
<line x1="287.0" y1="589.0" x2="287.0" y2="484.0" stroke="#caa06a" stroke-width="0.5" />
<line x1="294.0" y1="589.0" x2="294.0" y2="484.0" stroke="#caa06a" stroke-width="0.5" />
<line x1="301.0" y1="589.0" x2="301.0" y2="484.0" stroke="#caa06a" stroke-width="0.5" />
<line x1="308.0" y1="589.0" x2="308.0" y2="484.0" stroke="#caa06a" stroke-width="0.5" />
<line x1="315.0" y1="589.0" x2="315.0" y2="484.0" stroke="#caa06a" stroke-width="0.5" />
<line x1="322.0" y1="589.0" x2="322.0" y2="484.0" stroke="#caa06a" stroke-width="0.5" />
<line x1="329.0" y1="589.0" x2="329.0" y2="484.0" stroke="#caa06a" stroke-width="0.5" />
<line x1="336.0" y1="589.0" x2="336.0" y2="484.0" stroke="#caa06a" stroke-width="0.5" />
<line x1="343.0" y1="589.0" x2="343.0" y2="484.0" stroke="#caa06a" stroke-width="0.5" />
<line x1="350.0" y1="589.0" x2="350.0" y2="484.0" stroke="#caa06a" stroke-width="0.5" />
<line x1="357.0" y1="589.0" x2="357.0" y2="484.0" stroke="#caa06a" stroke-width="0.5" />
<line x1="364.0" y1="589.0" x2="364.0" y2="484.0" stroke="#caa06a" stroke-width="0.5" />
<line x1="371.0" y1="589.0" x2="371.0" y2="484.0" stroke="#caa06a" stroke-width="0.5" />
<line x1="378.0" y1="589.0" x2="378.0" y2="484.0" stroke="#caa06a" stroke-width="0.5" />
<line x1="385.0" y1="589.0" x2="385.0" y2="484.0" stroke="#caa06a" stroke-width="0.5" />
<line x1="392.0" y1="589.0" x2="392.0" y2="484.0" stroke="#caa06a" stroke-width="0.5" />
<line x1="399.0" y1="589.0" x2="399.0" y2="484.0" stroke="#caa06a" stroke-width="0.5" />
<line x1="406.0" y1="589.0" x2="406.0" y2="484.0" stroke="#caa06a" stroke-width="0.5" />
<line x1="413.0" y1="589.0" x2="413.0" y2="484.0" stroke="#caa06a" stroke-width="0.5" />
<line x1="420.0" y1="589.0" x2="420.0" y2="484.0" stroke="#caa06a" stroke-width="0.5" />
<line x1="427.0" y1="589.0" x2="427.0" y2="484.0" stroke="#caa06a" stroke-width="0.5" />
<line x1="434.0" y1="589.0" x2="434.0" y2="484.0" stroke="#caa06a" stroke-width="0.5" />
<line x1="441.0" y1="589.0" x2="441.0" y2="484.0" stroke="#caa06a" stroke-width="0.5" />
<line x1="448.0" y1="589.0" x2="448.0" y2="484.0" stroke="#caa06a" stroke-width="0.5" />
<line x1="455.0" y1="589.0" x2="455.0" y2="484.0" stroke="#caa06a" stroke-width="0.5" />
<line x1="462.0" y1="589.0" x2="462.0" y2="484.0" stroke="#caa06a" stroke-width="0.5" />
<line x1="469.0" y1="589.0" x2="469.0" y2="484.0" stroke="#caa06a" stroke-width="0.5" />
<line x1="476.0" y1="589.0" x2="476.0" y2="484.0" stroke="#caa06a" stroke-width="0.5" />
<line x1="483.0" y1="589.0" x2="483.0" y2="484.0" stroke="#caa06a" stroke-width="0.5" />
<line x1="490.0" y1="589.0" x2="490.0" y2="484.0" stroke="#caa06a" stroke-width="0.5" />
<line x1="497.0" y1="589.0" x2="497.0" y2="484.0" stroke="#caa06a" stroke-width="0.5" />
<line x1="504.0" y1="589.0" x2="504.0" y2="484.0" stroke="#caa06a" stroke-width="0.5" />
<line x1="511.0" y1="589.0" x2="511.0" y2="484.0" stroke="#caa06a" stroke-width="0.5" />
<line x1="518.0" y1="589.0" x2="518.0" y2="484.0" stroke="#caa06a" stroke-width="0.5" />
<line x1="525.0" y1="589.0" x2="525.0" y2="484.0" stroke="#caa06a" stroke-width="0.5" />
<line x1="532.0" y1="589.0" x2="532.0" y2="484.0" stroke="#caa06a" stroke-width="0.5" />
<line x1="539.0" y1="589.0" x2="539.0" y2="484.0" stroke="#caa06a" stroke-width="0.5" />
<line x1="546.0" y1="589.0" x2="546.0" y2="484.0" stroke="#caa06a" stroke-width="0.5" />
<line x1="553.0" y1="589.0" x2="553.0" y2="484.0" stroke="#caa06a" stroke-width="0.5" />
<line x1="560.0" y1="589.0" x2="560.0" y2="484.0" stroke="#caa06a" stroke-width="0.5" />
<line x1="567.0" y1="589.0" x2="567.0" y2="484.0" stroke="#caa06a" stroke-width="0.5" />
<line x1="574.0" y1="589.0" x2="574.0" y2="484.0" stroke="#caa06a" stroke-width="0.5" />
<line x1="581.0" y1="589.0" x2="581.0" y2="484.0" stroke="#caa06a" stroke-width="0.5" />
<line x1="588.0" y1="589.0" x2="588.0" y2="484.0" stroke="#caa06a" stroke-width="0.5" />
<line x1="595.0" y1="589.0" x2="595.0" y2="484.0" stroke="#caa06a" stroke-width="0.5" />
<line x1="602.0" y1="589.0" x2="602.0" y2="484.0" stroke="#caa06a" stroke-width="0.5" />
<line x1="609.0" y1="589.0" x2="609.0" y2="484.0" stroke="#caa06a" stroke-width="0.5" />
<line x1="616.0" y1="589.0" x2="616.0" y2="484.0" stroke="#caa06a" stroke-width="0.5" />
<line x1="623.0" y1="589.0" x2="623.0" y2="484.0" stroke="#caa06a" stroke-width="0.5" />
<line x1="630.0" y1="589.0" x2="630.0" y2="484.0" stroke="#caa06a" stroke-width="0.5" />
<line x1="637.0" y1="589.0" x2="637.0" y2="484.0" stroke="#caa06a" stroke-width="0.5" />
<line x1="644.0" y1="589.0" x2="644.0" y2="484.0" stroke="#caa06a" stroke-width="0.5" />
<line x1="651.0" y1="589.0" x2="651.0" y2="484.0" stroke="#caa06a" stroke-width="0.5" />
<line x1="658.0" y1="589.0" x2="658.0" y2="484.0" stroke="#caa06a" stroke-width="0.5" />
<line x1="665.0" y1="589.0" x2="665.0" y2="484.0" stroke="#caa06a" stroke-width="0.5" />
<line x1="672.0" y1="589.0" x2="672.0" y2="484.0" stroke="#caa06a" stroke-width="0.5" />
<line x1="679.0" y1="589.0" x2="679.0" y2="484.0" stroke="#caa06a" stroke-width="0.5" />
<line x1="686.0" y1="589.0" x2="686.0" y2="484.0" stroke="#caa06a" stroke-width="0.5" />
<line x1="693.0" y1="589.0" x2="693.0" y2="484.0" stroke="#caa06a" stroke-width="0.5" />
<line x1="700.0" y1="589.0" x2="700.0" y2="484.0" stroke="#caa06a" stroke-width="0.5" />
<line x1="707.0" y1="589.0" x2="707.0" y2="484.0" stroke="#caa06a" stroke-width="0.5" />
<line x1="714.0" y1="589.0" x2="714.0" y2="484.0" stroke="#caa06a" stroke-width="0.5" />
<line x1="721.0" y1="589.0" x2="721.0" y2="484.0" stroke="#caa06a" stroke-width="0.5" />
<line x1="728.0" y1="589.0" x2="728.0" y2="484.0" stroke="#caa06a" stroke-width="0.5" />
<line x1="735.0" y1="589.0" x2="735.0" y2="484.0" stroke="#caa06a" stroke-width="0.5" />
<line x1="742.0" y1="589.0" x2="742.0" y2="484.0" stroke="#caa06a" stroke-width="0.5" />
<line x1="749.0" y1="589.0" x2="749.0" y2="484.0" stroke="#caa06a" stroke-width="0.5" />
<line x1="756.0" y1="589.0" x2="756.0" y2="484.0" stroke="#caa06a" stroke-width="0.5" />
<line x1="763.0" y1="589.0" x2="763.0" y2="484.0" stroke="#caa06a" stroke-width="0.5" />
<line x1="770.0" y1="589.0" x2="770.0" y2="484.0" stroke="#caa06a" stroke-width="0.5" />
<line x1="777.0" y1="589.0" x2="777.0" y2="484.0" stroke="#caa06a" stroke-width="0.5" />
<line x1="784.0" y1="589.0" x2="784.0" y2="484.0" stroke="#caa06a" stroke-width="0.5" />
<line x1="791.0" y1="589.0" x2="791.0" y2="484.0" stroke="#caa06a" stroke-width="0.5" />
<line x1="798.0" y1="589.0" x2="798.0" y2="484.0" stroke="#caa06a" stroke-width="0.5" />
<line x1="805.0" y1="589.0" x2="805.0" y2="484.0" stroke="#caa06a" stroke-width="0.5" />
<line x1="812.0" y1="589.0" x2="812.0" y2="484.0" stroke="#caa06a" stroke-width="0.5" />
<line x1="819.0" y1="589.0" x2="819.0" y2="484.0" stroke="#caa06a" stroke-width="0.5" />
<line x1="826.0" y1="589.0" x2="826.0" y2="484.0" stroke="#caa06a" stroke-width="0.5" />
<line x1="833.0" y1="589.0" x2="833.0" y2="484.0" stroke="#caa06a" stroke-width="0.5" />
<line x1="840.0" y1="589.0" x2="840.0" y2="484.0" stroke="#caa06a" stroke-width="0.5" />
<line x1="847.0" y1="589.0" x2="847.0" y2="484.0" stroke="#caa06a" stroke-width="0.5" />
<line x1="854.0" y1="589.0" x2="854.0" y2="484.0" stroke="#caa06a" stroke-width="0.5" />
<line x1="861.0" y1="589.0" x2="861.0" y2="484.0" stroke="#caa06a" stroke-width="0.5" />
<line x1="868.0" y1="589.0" x2="868.0" y2="484.0" stroke="#caa06a" stroke-width="0.5" />
<line x1="875.0" y1="589.0" x2="875.0" y2="484.0" stroke="#caa06a" stroke-width="0.5" />
<line x1="882.0" y1="589.0" x2="882.0" y2="484.0" stroke="#caa06a" stroke-width="0.5" />
<line x1="889.0" y1="589.0" x2="889.0" y2="484.0" stroke="#caa06a" stroke-width="0.5" />
<line x1="896.0" y1="589.0" x2="896.0" y2="484.0" stroke="#caa06a" stroke-width="0.5" />
<rect x="338.8" y="269.8" width="428.4" height="218.4" fill="#c9a46c" stroke="#333" stroke-width="1.5"  />
<rect x="365.4" y="296.4" width="375.2" height="165.2" fill="#7fd0ea" stroke="#2a8fb3" stroke-width="1.5"  />
<rect x="351.4" y="282.4" width="403.2" height="193.2" fill="none" stroke="#8a6a2a" stroke-width="1" stroke-dasharray="3 2" />
<rect x="406.0" y="316.0" width="294.0" height="28.0" fill="#9fe0f2" stroke="#2a8fb3" stroke-width="1"  />
<text paint-order="stroke" stroke="#fff" stroke-width="3.5" stroke-linejoin="round" x="553.0" y="330.0" font-size="10" fill="#111" text-anchor="middle"  >ม้านั่งในสระ (ลึก 0.45)</text>
<rect x="511.0" y="528.8" width="84.0" height="22.4" fill="#e0c08a" stroke="#6a4a1a" stroke-width="1"  />
<rect x="511.0" y="506.4" width="84.0" height="22.4" fill="#e0c08a" stroke="#6a4a1a" stroke-width="1"  />
<rect x="511.0" y="484.0" width="84.0" height="22.4" fill="#e0c08a" stroke="#6a4a1a" stroke-width="1"  />
<line x1="511.0" y1="442.0" x2="595.0" y2="442.0" stroke="#2a8fb3" stroke-width="1" />
<line x1="511.0" y1="421.0" x2="595.0" y2="421.0" stroke="#2a8fb3" stroke-width="1" />
<line x1="511.0" y1="400.0" x2="595.0" y2="400.0" stroke="#2a8fb3" stroke-width="1" />
<line x1="511.0" y1="379.0" x2="595.0" y2="379.0" stroke="#2a8fb3" stroke-width="1" />
<text paint-order="stroke" stroke="#fff" stroke-width="3.5" stroke-linejoin="round" x="553.0" y="554.0" font-size="11" fill="#6a3" text-anchor="middle" font-weight="700" >บันไดลงสระ 3 ขั้น (สูงขั้นละ 0.27) + ราวสแตนเลส</text>
<line x1="508.9" y1="554.0" x2="508.9" y2="428.0" stroke="#222" stroke-width="2" />
<line x1="597.1" y1="554.0" x2="597.1" y2="428.0" stroke="#222" stroke-width="2" />
<text paint-order="stroke" stroke="#fff" stroke-width="3.5" stroke-linejoin="round" x="553.0" y="379.0" font-size="16" fill="#04506b" text-anchor="middle" font-weight="700" >สระสำเร็จรูป 3.00 × 6.00 ม.</text>
<text paint-order="stroke" stroke="#fff" stroke-width="3.5" stroke-linejoin="round" x="553.0" y="403.5" font-size="12" fill="#04506b" text-anchor="middle"  >ขอบสูงจากพื้น +0.80 · ผิวน้ำต่ำกว่าขอบ 0.15 · ลึก 1.30</text>
<rect x="406.0" y="296.4" width="14.0" height="5.6" fill="#555" stroke="none" stroke-width="1"  />
<rect x="546.0" y="296.4" width="14.0" height="5.6" fill="#555" stroke="none" stroke-width="1"  />
<rect x="686.0" y="296.4" width="14.0" height="5.6" fill="#555" stroke="none" stroke-width="1"  />
<rect x="728.0" y="459.5" width="28.0" height="2.1" fill="#222" stroke="none" stroke-width="1"  />
<text paint-order="stroke" stroke="#fff" stroke-width="3.5" stroke-linejoin="round" x="742.0" y="480.5" font-size="9" fill="#111" text-anchor="middle"  >สกิมเมอร์</text>
<rect x="882.0" y="351.0" width="126.0" height="133.0" fill="#d0d3d6" stroke="#111" stroke-width="2"  />
<text paint-order="stroke" stroke="#fff" stroke-width="3.5" stroke-linejoin="round" x="945.0" y="414.0" font-size="11" fill="#111" text-anchor="middle" font-weight="700" >ห้องเครื่องสระ</text>
<text paint-order="stroke" stroke="#fff" stroke-width="3.5" stroke-linejoin="round" x="945.0" y="435.0" font-size="9" fill="#111" text-anchor="middle"  >กรอง·UV·ฮีตเตอร์</text>
<circle cx="833.0" cy="463.0" r="24.5" fill="#ccc" stroke="#555" stroke-width="1"/>
<text paint-order="stroke" stroke="#fff" stroke-width="3.5" stroke-linejoin="round" x="833.0" y="498.0" font-size="10" fill="#111" text-anchor="middle"  >ฝักบัว</text>
<line x1="763.0" y1="393.0" x2="882.0" y2="393.0" stroke="#c0392b" stroke-width="2" />
<text paint-order="stroke" stroke="#fff" stroke-width="3.5" stroke-linejoin="round" x="822.5" y="382.5" font-size="9" fill="#c0392b" text-anchor="middle"  >ท่อ (ใต้ดิน)</text>
<rect x="385.0" y="211.0" width="140.0" height="38.5" fill="#7aa55a" stroke="#4a6f2f" stroke-width="1"  />
<rect x="567.0" y="211.0" width="140.0" height="38.5" fill="#7aa55a" stroke="#4a6f2f" stroke-width="1"  />
<text paint-order="stroke" stroke="#fff" stroke-width="3.5" stroke-linejoin="round" x="546.0" y="190.0" font-size="10" fill="#111" text-anchor="middle"  >กระบะต้นไม้</text>
<rect x="224.0" y="421.0" width="84.0" height="42.0" fill="#fff" stroke="#777" stroke-width="1"  />
<rect x="224.0" y="337.0" width="84.0" height="42.0" fill="#fff" stroke="#777" stroke-width="1"  />
<circle cx="266.0" cy="309.0" r="91.0" fill="rgba(200,190,170,0.5)" stroke="#887" stroke-width="1"/>
<text paint-order="stroke" stroke="#fff" stroke-width="3.5" stroke-linejoin="round" x="266.0" y="309.0" font-size="10" fill="#111" text-anchor="middle"  >ร่ม</text>
<text paint-order="stroke" stroke="#fff" stroke-width="3.5" stroke-linejoin="round" x="266.0" y="400.0" font-size="9" fill="#111" text-anchor="middle"  >เตียงอาบแดด</text>
<g stroke="#0b57d0" fill="#0b57d0"><line x1="343.0" y1="169.0" x2="763.0" y2="169.0"/><line x1="343.0" y1="163.0" x2="343.0" y2="175.0"/><line x1="763.0" y1="163.0" x2="763.0" y2="175.0"/><text x="553.0" y="164.0" font-size="12" text-anchor="middle" stroke="none">6.00 ม.</text></g>
<g stroke="#0b57d0" fill="#0b57d0"><line x1="819.0" y1="484.0" x2="819.0" y2="274.0"/><line x1="813.0" y1="484.0" x2="825.0" y2="484.0"/><line x1="813.0" y1="274.0" x2="825.0" y2="274.0"/><text x="827.0" y="379.0" font-size="12" stroke="none" transform="rotate(90 827.0 379.0)" text-anchor="middle">3.00 ม.</text></g>
<g stroke="#0b57d0" fill="#0b57d0"><line x1="168.0" y1="589.0" x2="168.0" y2="484.0"/><line x1="162.0" y1="589.0" x2="174.0" y2="589.0"/><line x1="162.0" y1="484.0" x2="174.0" y2="484.0"/><text x="176.0" y="536.5" font-size="12" stroke="none" transform="rotate(90 176.0 536.5)" text-anchor="middle">ชานไม้ 1.50 ม.</text></g>
<g stroke="#0b57d0" fill="#0b57d0"><line x1="203.0" y1="176.0" x2="343.0" y2="176.0"/><line x1="203.0" y1="170.0" x2="203.0" y2="182.0"/><line x1="343.0" y1="170.0" x2="343.0" y2="182.0"/><text x="273.0" y="171.0" font-size="12" text-anchor="middle" stroke="none">2.00</text></g>
<g stroke="#0b57d0" fill="#0b57d0"><line x1="763.0" y1="176.0" x2="903.0" y2="176.0"/><line x1="763.0" y1="170.0" x2="763.0" y2="182.0"/><line x1="903.0" y1="170.0" x2="903.0" y2="182.0"/><text x="833.0" y="171.0" font-size="12" text-anchor="middle" stroke="none">2.00</text></g>
<g stroke="#0b57d0" fill="#0b57d0"><line x1="385.0" y1="274.0" x2="385.0" y2="204.0"/><line x1="379.0" y1="274.0" x2="391.0" y2="274.0"/><line x1="379.0" y1="204.0" x2="391.0" y2="204.0"/><text x="393.0" y="239.0" font-size="12" stroke="none" transform="rotate(90 393.0 239.0)" text-anchor="middle">1.0</text></g>
<g>
<text x="1190" y="352.6" font-size="16" font-weight="700" fill="#111">ภาคตัด A–A ผ่านกลางสระ (ทิศเหนือ → ขวา)</text>
<line x1="1190" y1="600" x2="1642.6" y2="600" stroke="#333" stroke-width="2"/>
<rect x="1214.8" y="383" width="6.2" height="217" fill="#cfe6f2" stroke="#7fb5d6"/>
<rect x="1190" y="595.66" width="124" height="4.340000000000001" fill="#e2b886" stroke="#9b6b33"/>
<rect x="1500" y="595.66" width="62" height="4.340000000000001" fill="#e2b886" stroke="#9b6b33"/>
<rect x="1314" y="546.06" width="186" height="88.03999999999999" fill="#7fd0ea" stroke="#2a8fb3" stroke-width="2"/>
<rect x="1314" y="555.36" width="186" height="78.74" fill="#9fe0f2" opacity="0.9"/>
<rect x="1314" y="546.06" width="7.4399999999999995" height="88.03999999999999" fill="#c9a46c" stroke="#333"/>
<rect x="1492.5599999999997" y="546.06" width="7.4399999999999995" height="88.03999999999999" fill="#c9a46c" stroke="#333"/>
<rect x="1312.7599999999998" y="546.06" width="17.360000000000003" height="3.7199999999999998" fill="#e0c08a" stroke="#6a4a1a"/>
<rect x="1482.6399999999999" y="546.06" width="17.360000000000003" height="3.7199999999999998" fill="#e0c08a" stroke="#6a4a1a"/>
<rect x="1467.7599999999998" y="589.46" width="24.8" height="10.540000000000001" fill="#9fe0f2" stroke="#2a8fb3"/>
<rect x="1314" y="634.1" width="186" height="7.4399999999999995" fill="#bbb" stroke="#666"/>
<line x1="1190" y1="546.06" x2="1642.6" y2="546.06" stroke="#c0392b" stroke-dasharray="6 4"/>
<text x="1638.6" y="540.06" font-size="12" text-anchor="end" fill="#c0392b">ขอบสระ +0.87 (สูงจากชานไม้ 0.80)</text>
<text x="1314" y="689.8" font-size="12" fill="#333">ฐานบดอัด + ฐานรองสระ · พื้นสระ −0.55 (ฝังลึก 0.55 ม.)</text>
<text x="1376" y="575.2" font-size="12" fill="#04506b">น้ำ (ลึก 1.30)</text>
<text x="1217.8999999999999" y="377" font-size="12">กระจกคลินิก</text>
<line x1="1314" y1="655.8" x2="1500" y2="655.8" stroke="#0b57d0"/><text x="1407" y="669.8" font-size="12" text-anchor="middle" fill="#0b57d0">3.00 ม.</text>
</g><g transform="translate(70,860)" font-size="14" fill="#222"><text y="0">• สระตั้งเหนือพื้นดิน: ผิวขอบ +0.87 (สูง 0.80 จากชานไม้ +0.07) นั่งขอบแล้วหมุนตัวลงสระ/ขึ้นสระได้ง่าย · ฝังตัวสระลงดิน 0.55 ม. (ก้นสระ −0.55 · ลึก 1.30 ม.)</text><text y="26">• ทางลง: บันไดไม้ 3 ขั้นตรงประตูคลินิก (ลูกตั้ง 0.27 ม.) + ราวสแตนเลสสองข้าง + ขั้นใต้น้ำ 4 ขั้น (ผู้ป่วยกายภาพเดินจากประตู 2.00 ม. ลงสระได้เลย) · ขอบสระกว้าง 0.32 ม. ใช้เป็นที่นั่ง</text><text y="52">• ห้องเครื่อง (กรอง AFM, คลอรีนเกลือ, UV-C, ฮีตเตอร์ 30–32 °C) อยู่ทิศตะวันออกติดชานไม้ ท่อเข้า-ออกฝังใต้ชานไม้</text><text y="78">• รั้วหลังเฉียง: ชานฝั่งเหนือเหลือ ≈ 1.0 ม. ที่ปลายตะวันออก (สเปกระยะรั้ว ≥ 1.0 ม. จากสระ) · สระอยู่ห่างผนังอาคาร 1.50 ม.</text></g></svg>